<svg width="123" height="31" viewBox="0 0 123 31" fill="none" xmlns="http://www.w3.org/2000/svg">
<g id="nrg logo" filter="url(#filter0_d_1312_423)">
<path id="Vector" d="M79.1517 11.6915L79.1882 21.3953L80.5624 21.432L81.9244 21.4688V11.7282V1.99982H80.5259H79.1274L79.1517 11.6915Z" fill="white"/>
<path id="Vector_2" d="M102.72 11.2997V20.5875L103.364 20.7833C104.434 21.1015 106.283 21.4441 108.034 21.6521C114.187 22.3741 118.237 20.5508 119.453 16.5004C119.623 15.962 119.672 15.3746 119.672 14.2977C119.672 13.0251 119.623 12.7069 119.344 11.9238C118.736 10.1984 117.653 9.0114 115.926 8.19152C114.564 7.53073 113.798 7.37165 111.779 7.29823C109.676 7.22481 108.289 7.40836 106.623 7.99573C106.052 8.20376 105.565 8.36284 105.553 8.36284C105.529 8.36284 105.517 6.93112 105.517 5.18124V1.99965H104.118H102.72V11.2997ZM113.117 10.076C114.674 10.4798 115.574 11.1284 116.194 12.3276C116.498 12.8905 116.522 13.0741 116.522 14.2977C116.522 15.497 116.486 15.7172 116.206 16.3291C115.562 17.6996 114.309 18.5807 112.436 18.96C111.135 19.2292 108.837 19.1313 106.915 18.7397L105.577 18.4583L105.541 14.775L105.517 11.0917L106.222 10.7735C106.879 10.4676 108.484 10.0393 109.347 9.91693C110.442 9.77009 112.217 9.84351 113.117 10.076Z" fill="white"/>
<path id="Vector_3" d="M11.1478 7.152C9.85876 7.31108 8.66699 7.53135 5.65108 8.20438L3 8.79175V14.9347V21.0898H5.06736H7.13471V16.501V11.9244L7.59683 11.802C8.61835 11.5206 10.4546 11.1779 11.5856 11.0678C12.972 10.921 14.2002 11.0556 14.9055 11.4104C15.5136 11.7286 16.0852 12.4016 16.2432 12.9768C16.3284 13.2582 16.377 14.9714 16.377 17.2597V21.0898H18.5173H20.6577L20.609 16.5867C20.5482 11.7286 20.536 11.5695 19.8186 10.1378C19.1619 8.85293 17.6417 7.77608 15.8541 7.32332C14.8569 7.07858 12.4126 6.99292 11.1478 7.152Z" fill="white"/>
<path id="Vector_4" d="M27.7962 7.21318C24.683 7.77608 22.5183 9.74623 22.1048 12.4016C22.0319 12.8422 21.9711 14.9714 21.9711 17.1373V21.0898H24.0263H26.0936L26.1301 17.3209C26.1666 14.0169 26.1909 13.503 26.3855 13.0747C26.6895 12.3894 27.3705 11.7286 28.1002 11.4104C28.9636 11.0189 30.7634 11.0433 33.2199 11.4594C34.2293 11.6307 35.2751 11.802 35.5548 11.8387L36.0656 11.9122L38.1937 10.0032C39.3733 8.95083 40.3341 8.08201 40.3341 8.06977C40.3341 8.06977 39.6044 8.04529 38.7167 8.04529C37.5127 8.03306 36.5763 7.93516 34.9833 7.65371C31.3107 7.00516 29.523 6.89503 27.7962 7.21318Z" fill="white"/>
<path id="Vector_5" d="M45.3808 7.13951C41.1853 7.8003 38.5829 10.5047 38.5829 14.2369C38.5829 17.394 40.4313 19.7435 43.6783 20.7102C46.0862 21.4322 49.5642 21.163 51.6559 20.1106C52.045 19.9026 52.3977 19.7435 52.422 19.7435C52.4585 19.7435 52.4585 19.9271 52.4099 20.1351C52.0085 22.2766 49.9898 23.3045 46.4875 23.1332C44.1161 23.023 41.915 22.3378 39.7625 21.0406C39.2639 20.7347 38.8261 20.4777 38.8018 20.4777C38.7775 20.4777 38.7531 21.4689 38.7531 22.6681V24.8586L39.7625 25.3603C41.0151 25.9844 42.7298 26.5473 44.1526 26.8042C45.466 27.0367 48.3116 27.0734 49.4547 26.8532C53.1517 26.1679 55.5109 24.1488 56.1919 21.1263C56.35 20.3921 56.3865 19.3764 56.3865 14.9222V9.59913L56.1189 9.41558C55.669 9.09741 53.3584 8.15517 52.191 7.81254C49.9777 7.17622 47.0469 6.88253 45.3808 7.13951ZM48.9805 11.1165C49.8317 11.2633 51.364 11.7161 52.2882 12.0955C52.4828 12.1811 52.495 12.3524 52.4707 13.9065L52.4342 15.6319L51.5464 16.0847C50.0506 16.8556 48.9197 17.1126 47.0226 17.1126C45.5633 17.1126 45.3079 17.0759 44.7728 16.8311C43.5689 16.2805 42.9 15.3138 42.8879 14.1635C42.8879 12.6339 43.7878 11.5448 45.4295 11.1043C46.1956 10.8962 47.7644 10.8962 48.9805 11.1165Z" fill="white"/>
<path id="Vector_6" d="M67.3313 7.4332C65.5436 7.81254 64.4005 8.37544 63.306 9.42782C62.0656 10.6148 61.3724 12.4381 61.3724 14.4694C61.3846 16.6598 62.017 18.2996 63.379 19.6212C65.726 21.8728 69.8 22.3867 75.2967 21.1018L76.756 20.7592L76.7925 19.2908L76.829 17.8101L76.0628 18.0548C73.8252 18.7523 70.5661 19.1439 68.7906 18.9237C66.0301 18.5688 64.6559 17.1004 64.6559 14.4939C64.6559 13.0989 64.8991 12.3157 65.5923 11.5448C66.6138 10.3945 67.9637 10.0152 70.5783 10.1008C71.9038 10.1498 72.6578 10.2599 74.1414 10.6026C75.1751 10.8351 76.2088 11.0553 76.4277 11.1043L76.829 11.1777L76.7925 9.74598L76.756 8.32649L74.6278 7.83702C72.6821 7.40873 72.3173 7.35978 70.3107 7.32307C68.7663 7.28636 67.8907 7.32307 67.3313 7.4332Z" fill="white"/>
<path id="Vector_7" d="M84.5999 11.9976C84.5999 16.8434 84.6728 17.5042 85.3295 18.8502C86.7645 21.7871 90.4614 22.3989 98.2809 20.9917L100.105 20.6613L100.142 14.139L100.166 7.62899H98.7673H97.3688V13.001V18.373L97.0405 18.4464C96.0554 18.6544 93.9516 18.8992 92.5045 18.9604C89.3061 19.1072 88.0536 18.3852 87.5793 16.1214C87.4455 15.4851 87.3969 14.3226 87.3969 11.4469V7.62899H85.9984H84.5999V11.9976Z" fill="white"/>
</g>
<defs>
<filter id="filter0_d_1312_423" x="0" y="0" width="122.672" height="31" filterUnits="userSpaceOnUse" color-interpolation-filters="sRGB">
<feFlood flood-opacity="0" result="BackgroundImageFix"/>
<feColorMatrix in="SourceAlpha" type="matrix" values="0 0 0 0 0 0 0 0 0 0 0 0 0 0 0 0 0 0 127 0" result="hardAlpha"/>
<feOffset dy="1"/>
<feGaussianBlur stdDeviation="1.5"/>
<feComposite in2="hardAlpha" operator="out"/>
<feColorMatrix type="matrix" values="0 0 0 0 0 0 0 0 0 0 0 0 0 0 0 0 0 0 1 0"/>
<feBlend mode="normal" in2="BackgroundImageFix" result="effect1_dropShadow_1312_423"/>
<feBlend mode="normal" in="SourceGraphic" in2="effect1_dropShadow_1312_423" result="shape"/>
</filter>
</defs>
</svg>
